<svg width="80" height="51" viewBox="0 0 80 51" fill="none" xmlns="http://www.w3.org/2000/svg">
<g clip-path="url(#clip0_572_123)">
<path d="M37.3347 44.1031C38.1397 44.9135 38.988 45.6635 39.8749 46.3518V49.8596H38.8106L5.03724 6.48145V41.3121C5.03724 44.3759 7.16584 48.1508 9.57758 49.3608V49.8596H0V49.3608C2.41173 48.1508 4.54034 44.3759 4.54034 41.3121V5.84106L0 0H7.16584L29.896 28.9131C30.6282 34.6491 33.206 39.9503 37.3347 44.1031Z" fill="#0A0A0A"/>
<path d="M39.8749 37.5588C40.1296 38.0245 40.3946 38.4789 40.6709 38.9206V45.9511L39.8749 45.329C35.2891 41.5929 32.0257 36.2758 30.9034 30.1938C30.8056 29.6665 30.7237 29.1334 30.6589 28.5946L38.5116 38.5827V34.7302C38.7617 35.3249 39.0267 35.9048 39.3075 36.4687C39.4895 36.8385 39.6793 37.2027 39.8749 37.5588Z" fill="#0A0A0A"/>
<path d="M44.3448 0V0.569609C42.9939 1.26821 41.7147 2.79668 40.8733 4.55231C40.6515 5.01462 40.4605 5.4929 40.307 5.97576C40.0318 6.83873 39.8749 7.71655 39.8749 8.54756V35.81C39.6771 35.4037 39.4883 34.9882 39.3075 34.5647V8.54756C39.3075 8.03046 39.2473 7.49624 39.1347 6.95745C39.0756 6.66979 39.0005 6.38099 38.9118 6.09333C38.1909 3.73385 36.5729 1.46683 34.8377 0.569609V0H44.3448Z" fill="#0A0A0A"/>
<path d="M39.3075 36.4687V40.8852L30.9034 30.1939C32.0257 36.2758 35.2891 41.5929 39.8749 45.329V37.5588C39.6793 37.2027 39.4895 36.8385 39.3075 36.4687ZM34.8377 0V0.569609C36.5729 1.46683 38.1909 3.73385 38.9118 6.09334C39.0005 6.38099 39.0756 6.66979 39.1347 6.95745C39.2473 7.49624 39.3075 8.03046 39.3075 8.54756V34.5647C39.4883 34.9882 39.6771 35.4037 39.8749 35.81V8.54756C39.8749 7.71655 40.0318 6.83874 40.307 5.97576C40.4605 5.49291 40.6515 5.01462 40.8733 4.55231C41.7147 2.79668 42.9939 1.26821 44.3448 0.569609V0H34.8377ZM37.3347 44.1031C33.206 39.9503 30.6282 34.6491 29.896 28.9131L7.16584 0H0L4.54034 5.84106V41.3121C4.54034 44.3759 2.41173 48.1508 0 49.3608V49.8596H9.57758V49.3608C7.16584 48.1508 5.03724 44.3759 5.03724 41.3121V6.48145L38.8106 49.8596H39.8749V46.3518C38.988 45.6635 38.1397 44.9135 37.3347 44.1031Z" fill="#0A0A0A"/>
<path d="M40.8733 4.55231C40.6515 5.01462 40.4605 5.4929 40.307 5.97576C40.0318 6.83873 39.8749 7.71655 39.8749 8.54756V10.0258C39.8442 10.0737 39.8158 10.1228 39.7874 10.1719C39.6202 10.4573 39.4599 10.7484 39.3075 11.044V8.54756C39.3075 8.03046 39.2472 7.49624 39.1347 6.95745C39.0755 6.66979 39.0005 6.38099 38.9118 6.09333C39.544 5.54998 40.1978 5.0363 40.8733 4.55231Z" fill="#0A0A0A"/>
<path d="M49.9869 1.70883C59.2814 -0.285375 67.7253 5.84106 72.9046 14.1033H73.4016L75.5302 5.98261C69.4991 1.9942 64.8871 0 57.2244 0C51.5095 0 46.0151 1.8869 41.51 5.07512C41.1735 5.81367 40.921 6.58875 40.7846 7.34214C43.0621 4.56829 46.1345 2.54555 49.9869 1.70883Z" fill="#0A0A0A"/>
<path d="M67.3705 26.8527V26.8607C60.9972 26.218 60.6288 24.4544 60.1922 15.4708C59.6714 26.2077 59.2484 26.6324 48.5531 27.1552C59.2484 27.678 59.6714 28.1026 60.1922 38.8396C60.6311 29.792 61.0006 28.0672 67.5058 27.436C70.8977 27.7111 72.833 30.4016 72.833 34.6891V44.1624C70.4918 46.7274 67.2989 48.7216 63.0417 49.2912C53.2492 50.5617 45.4614 46.6075 40.6709 38.9218C40.3946 38.48 40.1296 38.0257 39.8749 37.5599C39.6793 37.2038 39.4895 36.8397 39.3075 36.4698C39.0267 35.9059 38.7617 35.326 38.5116 34.7313C38.0556 33.6515 37.6463 32.5214 37.2858 31.3422C35.139 24.2774 35.5768 16.6534 38.5116 10.8522V8.54869C38.5116 8.23934 38.4866 7.92087 38.4388 7.59668C33.588 12.1981 30.4747 18.5186 30.4747 25.5011C30.4747 26.549 30.5373 27.5821 30.6589 28.5957C30.7238 29.1345 30.8056 29.6676 30.9034 30.195C32.0257 36.2769 35.2891 41.594 39.8749 45.3302L40.6709 45.9523C44.894 49.1245 50.1336 51.0011 55.8053 51.0011C69.7118 51.0011 76.5228 43.4501 78.4388 39.319V31.6264C78.4388 29.0626 78.9357 28.0649 80 27.4246V26.8538H67.3705V26.8527Z" fill="#0A0A0A"/>
</g>
<defs>
<clipPath id="clip0_572_123">
<rect width="80" height="51" fill="white"/>
</clipPath>
</defs>
</svg>
